<?xml version="1.0" encoding="UTF-8" standalone="no"?>
<!-- Created with Inkscape (http://www.inkscape.org/) -->

<svg
   width="181.47371mm"
   height="56.379635mm"
   viewBox="0 0 181.47371 56.379635"
   version="1.1"
   id="svg5"
   xml:space="preserve"
   xmlns="http://www.w3.org/2000/svg"
   xmlns:svg="http://www.w3.org/2000/svg"><defs
     id="defs2"><filter
       style="color-interpolation-filters:sRGB"
       id="filter22"
       x="-0.01229976"
       y="-0.054048073"
       width="1.0245995"
       height="1.1080961"><feGaussianBlur
         stdDeviation="0.65770549"
         id="feGaussianBlur22" /></filter></defs><path
     style="fill:#ffffff;fill-opacity:1;stroke:none;stroke-width:1;stroke-linecap:round;stroke-dasharray:none;stroke-opacity:1"
     d="M -9.2631515,-77.668313 H 190.73685 V 122.33169 H -9.2631515 Z"
     id="path2" /><g
     id="g19"
     style="display:inline;filter:url(#filter22)"
     transform="translate(-9.2631515,-77.668313)"><path
       style="fill:#0067ff;fill-opacity:1;stroke:#ffffff;stroke-width:1.2;stroke-linecap:square;stroke-linejoin:round;stroke-dasharray:none;stroke-opacity:1;stop-color:#000000"
       d="m 178.91029,119.5249 h 9.64807 v -9.64806 h -9.64807 z"
       id="path14" /><path
       id="path15"
       style="font-family:none;mix-blend-mode:normal;fill:#0067ff;fill-opacity:1;fill-rule:nonzero;stroke:#ffffff;stroke-width:1.2;stroke-linecap:butt;stroke-linejoin:miter;stroke-miterlimit:10;stroke-dasharray:none;stroke-dashoffset:0;stroke-opacity:1"
       d="m 82.872978,79.846806 c -11.128612,0 -20.153292,9.02468 -20.153292,20.153294 0,11.12861 9.02468,20.15329 20.153292,20.15329 11.128613,0 20.153292,-9.02468 20.153292,-20.15329 0,-11.128614 -9.024679,-20.153294 -20.153292,-20.153294 z m -1.351856,7.130831 h 2.703711 c 0.787849,0 1.463037,0.564598 1.602486,1.33997 l 0.290422,1.613338 c 0.547481,0.176355 1.072578,0.399514 1.576648,0.658874 l 1.351339,-0.939477 c 0.646776,-0.449815 1.52273,-0.37172 2.079976,0.185518 l 1.911511,1.912028 c 0.557246,0.557247 0.635338,1.43266 0.185519,2.079977 l -0.938444,1.351338 c 0.258816,0.50462 0.482528,1.02968 0.658874,1.577165 l 1.612305,0.289905 c 0.775369,0.139437 1.33997,0.814115 1.33997,1.601969 v 2.703708 c 0,0.78785 -0.564601,1.46304 -1.33997,1.60249 l -1.613338,0.29042 c -0.176355,0.54748 -0.400056,1.07255 -0.658875,1.57717 l 0.938444,1.35133 c 0.449811,0.64677 0.371721,1.52274 -0.185518,2.07998 l -1.911512,1.91151 c -0.557245,0.55723 -1.433202,0.63541 -2.079976,0.18552 l -1.351339,-0.93896 c -0.504614,0.25883 -1.02971,0.48201 -1.576648,0.65836 l -0.290421,1.61385 c -0.13891,0.77429 -0.81412,1.33842 -1.60197,1.33842 h -2.703711 c -0.78785,0 -1.46252,-0.56408 -1.601969,-1.33945 l -0.290421,-1.61386 c -0.54748,-0.17627 -1.072577,-0.39899 -1.576648,-0.65835 l -1.351339,0.93896 c -0.646774,0.44983 -1.522731,0.37165 -2.079977,-0.18552 l -1.912028,-1.91151 c -0.557245,-0.55724 -0.635337,-1.43318 -0.185518,-2.0805 l 0.938961,-1.35082 c -0.258818,-0.50462 -0.482528,-1.02968 -0.658875,-1.57716 l -1.613338,-0.29042 c -0.774287,-0.1389 -1.338936,-0.81413 -1.338936,-1.60197 v -2.703715 c 0,-0.787845 0.564598,-1.462532 1.33997,-1.601969 l 1.613338,-0.290422 c 0.176332,-0.547486 0.400054,-1.072546 0.658874,-1.577164 l -0.938444,-1.351339 c -0.44981,-0.646772 -0.371719,-1.523247 0.185519,-2.080493 l 1.911511,-1.911511 c 0.557247,-0.557245 1.433201,-0.635338 2.079976,-0.185519 l 1.351339,0.939478 c 0.504615,-0.258819 1.029712,-0.482532 1.576648,-0.658875 l 0.290422,-1.613855 c 0.138909,-0.774287 0.813603,-1.338419 1.601452,-1.338419 z m 1.351856,8.139038 c -2.696702,0 -4.883423,2.18618 -4.883423,4.883425 0,2.69724 2.186721,4.88342 4.883423,4.88342 2.696705,0 4.883423,-2.18618 4.883423,-4.88342 0,-2.697245 -2.186718,-4.883425 -4.883423,-4.883425 z" /><path
       d="m 165.54188,119.5249 h 9.72507 L 162.04086,80.624628 H 150.70421 L 137.47812,119.5249 h 9.72507 l 9.16935,-28.730628 z"
       id="path16"
       style="font-size:55.5718px;line-height:1.25;font-family:Gilroy;-inkscape-font-specification:Gilroy;fill:#0067ff;fill-opacity:1;stroke:#ffffff;stroke-width:1.2;stroke-dasharray:none;stroke-opacity:1" /><path
       d="m 11.441641,80.624631 v 38.900259 h 8.891488 V 80.624631 Z"
       id="path17"
       style="font-size:55.5718px;line-height:1.25;font-family:Gilroy;-inkscape-font-specification:Gilroy;fill:#0067ff;fill-opacity:1;stroke:#ffffff;stroke-width:1.2;stroke-dasharray:none;stroke-opacity:1" /><path
       d="M 48.674679,80.624631 V 101.74191 L 33.670293,80.624631 h -6.668616 v 38.900259 h 8.891488 V 98.407608 l 15.004386,21.117282 h 6.668616 V 80.624631 Z"
       id="path18"
       style="font-size:55.5718px;line-height:1.25;font-family:Gilroy;-inkscape-font-specification:Gilroy;fill:#0067ff;fill-opacity:1;stroke:#ffffff;stroke-width:1.2;stroke-dasharray:none;stroke-opacity:1" /><path
       d="m 115.69403,119.52489 h 11.33665 l 12.67037,-38.900258 h -9.72506 l -8.61363,28.619468 -8.61363,-28.619468 h -9.72507 z"
       id="path19"
       style="font-size:55.5718px;line-height:1.25;font-family:Gilroy;-inkscape-font-specification:Gilroy;fill:#0067ff;fill-opacity:1;stroke:#ffffff;stroke-width:1.2;stroke-dasharray:none;stroke-opacity:1" /></g><g
     id="g25"
     style="display:inline;fill:#0064ff;fill-opacity:1;stroke:none"
     transform="translate(-9.2631515,-77.668313)"><path
       style="fill:#0064ff;fill-opacity:1;stroke:none;stroke-width:1.2;stroke-linecap:square;stroke-linejoin:round;stroke-dasharray:none;stroke-opacity:1;stop-color:#000000"
       d="m 178.91029,119.5249 h 9.64807 v -9.64806 h -9.64807 z"
       id="path20" /><path
       id="path21"
       style="font-family:none;mix-blend-mode:normal;fill:#0064ff;fill-opacity:1;fill-rule:nonzero;stroke:none;stroke-width:1.2;stroke-linecap:butt;stroke-linejoin:miter;stroke-miterlimit:10;stroke-dasharray:none;stroke-dashoffset:0;stroke-opacity:1"
       d="m 82.872978,79.846806 c -11.128612,0 -20.153292,9.02468 -20.153292,20.153294 0,11.12861 9.02468,20.15329 20.153292,20.15329 11.128613,0 20.153292,-9.02468 20.153292,-20.15329 0,-11.128614 -9.024679,-20.153294 -20.153292,-20.153294 z m -1.351856,7.130831 h 2.703711 c 0.787849,0 1.463037,0.564598 1.602486,1.33997 l 0.290422,1.613338 c 0.547481,0.176355 1.072578,0.399514 1.576648,0.658874 l 1.351339,-0.939477 c 0.646776,-0.449815 1.52273,-0.37172 2.079976,0.185518 l 1.911511,1.912028 c 0.557246,0.557247 0.635338,1.43266 0.185519,2.079977 l -0.938444,1.351338 c 0.258816,0.50462 0.482528,1.02968 0.658874,1.577165 l 1.612305,0.289905 c 0.775369,0.139437 1.33997,0.814115 1.33997,1.601969 v 2.703708 c 0,0.78785 -0.564601,1.46304 -1.33997,1.60249 l -1.613338,0.29042 c -0.176355,0.54748 -0.400056,1.07255 -0.658875,1.57717 l 0.938444,1.35133 c 0.449811,0.64677 0.371721,1.52274 -0.185518,2.07998 l -1.911512,1.91151 c -0.557245,0.55723 -1.433202,0.63541 -2.079976,0.18552 l -1.351339,-0.93896 c -0.504614,0.25883 -1.02971,0.48201 -1.576648,0.65836 l -0.290421,1.61385 c -0.13891,0.77429 -0.81412,1.33842 -1.60197,1.33842 h -2.703711 c -0.78785,0 -1.46252,-0.56408 -1.601969,-1.33945 l -0.290421,-1.61386 c -0.54748,-0.17627 -1.072577,-0.39899 -1.576648,-0.65835 l -1.351339,0.93896 c -0.646774,0.44983 -1.522731,0.37165 -2.079977,-0.18552 l -1.912028,-1.91151 c -0.557245,-0.55724 -0.635337,-1.43318 -0.185518,-2.0805 l 0.938961,-1.35082 c -0.258818,-0.50462 -0.482528,-1.02968 -0.658875,-1.57716 l -1.613338,-0.29042 c -0.774287,-0.1389 -1.338936,-0.81413 -1.338936,-1.60197 v -2.703715 c 0,-0.787845 0.564598,-1.462532 1.33997,-1.601969 l 1.613338,-0.290422 c 0.176332,-0.547486 0.400054,-1.072546 0.658874,-1.577164 l -0.938444,-1.351339 c -0.44981,-0.646772 -0.371719,-1.523247 0.185519,-2.080493 l 1.911511,-1.911511 c 0.557247,-0.557245 1.433201,-0.635338 2.079976,-0.185519 l 1.351339,0.939478 c 0.504615,-0.258819 1.029712,-0.482532 1.576648,-0.658875 l 0.290422,-1.613855 c 0.138909,-0.774287 0.813603,-1.338419 1.601452,-1.338419 z m 1.351856,8.139038 c -2.696702,0 -4.883423,2.18618 -4.883423,4.883425 0,2.69724 2.186721,4.88342 4.883423,4.88342 2.696705,0 4.883423,-2.18618 4.883423,-4.88342 0,-2.697245 -2.186718,-4.883425 -4.883423,-4.883425 z" /><path
       d="m 165.54188,119.5249 h 9.72507 L 162.04086,80.624628 H 150.70421 L 137.47812,119.5249 h 9.72507 l 9.16935,-28.730628 z"
       id="path22"
       style="font-size:55.5718px;line-height:1.25;font-family:Gilroy;-inkscape-font-specification:Gilroy;fill:#0064ff;fill-opacity:1;stroke:none;stroke-width:1.2;stroke-dasharray:none;stroke-opacity:1" /><path
       d="m 11.441641,80.624631 v 38.900259 h 8.891488 V 80.624631 Z"
       id="path23"
       style="font-size:55.5718px;line-height:1.25;font-family:Gilroy;-inkscape-font-specification:Gilroy;fill:#0064ff;fill-opacity:1;stroke:none;stroke-width:1.2;stroke-dasharray:none;stroke-opacity:1" /><path
       d="M 48.674679,80.624631 V 101.74191 L 33.670293,80.624631 h -6.668616 v 38.900259 h 8.891488 V 98.407608 l 15.004386,21.117282 h 6.668616 V 80.624631 Z"
       id="path24"
       style="font-size:55.5718px;line-height:1.25;font-family:Gilroy;-inkscape-font-specification:Gilroy;fill:#0064ff;fill-opacity:1;stroke:none;stroke-width:1.2;stroke-dasharray:none;stroke-opacity:1" /><path
       d="m 115.69403,119.52489 h 11.33665 l 12.67037,-38.900258 h -9.72506 l -8.61363,28.619468 -8.61363,-28.619468 h -9.72507 z"
       id="path25"
       style="font-size:55.5718px;line-height:1.25;font-family:Gilroy;-inkscape-font-specification:Gilroy;fill:#0064ff;fill-opacity:1;stroke:none;stroke-width:1.2;stroke-dasharray:none;stroke-opacity:1" /></g><path
     d="m 129.80409,56.293437 q -0.30273,0 -0.50914,-0.20641 -0.2064,-0.20641 -0.2064,-0.50914 v -9.31586 q 0,-0.31649 0.2064,-0.50914 0.20641,-0.2064 0.50914,-0.2064 0.41282,0 0.63299,0.38529 l 4.30703,8.62783 h -0.44033 l 4.19695,-8.62783 q 0.22017,-0.38529 0.63298,-0.38529 0.30273,0 0.50914,0.2064 0.20641,0.19265 0.20641,0.50914 v 9.31586 q 0,0.30273 -0.22017,0.50914 -0.20641,0.20641 -0.49538,0.20641 -0.30273,0 -0.50914,-0.20641 -0.2064,-0.20641 -0.2064,-0.50914 v -7.33435 l 0.27521,-0.0688 -3.60526,7.34811 q -0.23392,0.35777 -0.61922,0.35777 -0.45409,0 -0.6605,-0.42657 l -3.56397,-7.1417 0.27521,-0.0688 v 7.33435 q 0,0.30273 -0.20641,0.50914 -0.20641,0.20641 -0.50914,0.20641 z m 15.79704,0.055 q -1.00452,0 -1.80263,-0.49538 -0.79811,-0.50914 -1.26597,-1.36229 -0.45409,-0.86691 -0.45409,-1.95399 0,-1.08708 0.49538,-1.95399 0.50913,-0.86691 1.36229,-1.36229 0.86691,-0.50914 1.94023,-0.50914 1.07331,0 1.92647,0.50914 0.85315,0.49538 1.34852,1.36229 0.50914,0.86691 0.50914,1.95399 h -0.53666 q 0,1.08708 -0.46785,1.95399 -0.4541,0.85315 -1.25221,1.36229 -0.79811,0.49538 -1.80262,0.49538 z m 0.27521,-1.23845 q 0.70178,0 1.2522,-0.33025 0.55042,-0.34401 0.86691,-0.92195 0.31649,-0.5917 0.31649,-1.32101 0,-0.74307 -0.31649,-1.32101 -0.31649,-0.5917 -0.86691,-0.92195 -0.55042,-0.34401 -1.2522,-0.34401 -0.68803,0 -1.25221,0.34401 -0.55042,0.33025 -0.88067,0.92195 -0.31649,0.57794 -0.31649,1.32101 0,0.72931 0.31649,1.32101 0.33025,0.57794 0.88067,0.92195 0.56418,0.33025 1.25221,0.33025 z m 3.08235,1.19717 q -0.30273,0 -0.50914,-0.19265 -0.19265,-0.20641 -0.19265,-0.50914 v -2.10536 l 0.26145,-1.45861 1.14212,0.49538 v 3.06859 q 0,0.30273 -0.2064,0.50914 -0.19265,0.19265 -0.49538,0.19265 z m 4.11438,-2.76586 -0.85315,-0.93572 4.22447,-3.77037 q 0.20641,-0.19265 0.4541,-0.17889 0.26145,0.0138 0.44033,0.22017 0.19265,0.2064 0.17889,0.45409 -0.0138,0.24769 -0.22017,0.44034 z m -0.64675,2.7521 q -0.30273,0 -0.49537,-0.17889 -0.17889,-0.19265 -0.17889,-0.49538 v -9.39842 q 0,-0.30273 0.17889,-0.48162 0.19264,-0.19264 0.49537,-0.19264 0.30273,0 0.48162,0.19264 0.19265,0.17889 0.19265,0.48162 v 9.39842 q 0,0.30273 -0.19265,0.49538 -0.17889,0.17889 -0.48162,0.17889 z m 4.9125,-0.0688 q -0.22017,0.17889 -0.49538,0.15137 -0.26145,-0.0138 -0.44033,-0.23393 l -2.79338,-3.45388 0.96323,-0.9082 2.86219,3.52269 q 0.17888,0.22017 0.15136,0.48162 -0.0138,0.24769 -0.24769,0.44033 z m 5.09135,0.12385 q -1.14212,0 -2.03656,-0.48162 -0.88067,-0.49538 -1.38981,-1.34853 -0.49537,-0.86691 -0.49537,-1.98151 0,-1.12836 0.46785,-1.98151 0.48162,-0.86691 1.32101,-1.34853 0.83939,-0.49538 1.92647,-0.49538 1.07332,0 1.84391,0.48162 0.77059,0.46786 1.16964,1.30725 0.41282,0.82563 0.41282,1.91271 0,0.26144 -0.17889,0.44033 -0.17889,0.16513 -0.4541,0.16513 h -5.54548 v -1.10084 h 5.5042 l -0.56418,0.38529 q -0.0138,-0.68802 -0.27521,-1.22468 -0.26145,-0.55042 -0.74307,-0.86691 -0.48161,-0.3165 -1.16964,-0.3165 -0.78435,0 -1.34853,0.34402 -0.55042,0.34401 -0.83939,0.94947 -0.28897,0.5917 -0.28897,1.34853 0,0.75683 0.34401,1.34853 0.34402,0.5917 0.94948,0.93571 0.60546,0.34402 1.38981,0.34402 0.42657,0 0.86691,-0.15137 0.4541,-0.16513 0.72931,-0.37153 0.2064,-0.15137 0.44033,-0.15137 0.24769,-0.0138 0.42658,0.13761 0.23393,0.2064 0.24769,0.45409 0.0138,0.24769 -0.22017,0.42658 -0.46786,0.37153 -1.16964,0.60546 -0.68803,0.23393 -1.32101,0.23393 z m 5.68306,-4.76113 q 0,-0.82563 0.39906,-1.47238 0.41281,-0.6605 1.10084,-1.0458 0.68802,-0.38529 1.51365,-0.38529 0.82563,0 1.22469,0.27521 0.41281,0.26145 0.31649,0.63298 -0.0413,0.19265 -0.16513,0.30273 -0.11008,0.0963 -0.26145,0.12385 -0.15136,0.0275 -0.33025,-0.0138 -0.88067,-0.17889 -1.58246,-0.0275 -0.70178,0.15136 -1.1146,0.56418 -0.39905,0.41281 -0.39905,1.0458 z m 0.0138,4.70609 q -0.33025,0 -0.50914,-0.16513 -0.17888,-0.17889 -0.17888,-0.5229 v -6.15094 q 0,-0.33025 0.17888,-0.50914 0.17889,-0.17889 0.50914,-0.17889 0.34402,0 0.50914,0.17889 0.17889,0.16513 0.17889,0.50914 v 6.15094 q 0,0.33025 -0.17889,0.50914 -0.16512,0.17889 -0.50914,0.17889 z m 8.73789,0.055 q -0.96323,0 -1.78886,-0.28897 -0.81187,-0.30273 -1.26597,-0.75683 -0.20641,-0.22017 -0.17888,-0.49538 0.0413,-0.28897 0.27521,-0.46785 0.27521,-0.22017 0.53666,-0.17889 0.27521,0.0275 0.46785,0.23393 0.23393,0.26145 0.74307,0.49538 0.5229,0.22016 1.15588,0.22016 0.79811,0 1.21093,-0.26145 0.42657,-0.26145 0.44033,-0.67426 0.0138,-0.41282 -0.39905,-0.71555 -0.39906,-0.30273 -1.47238,-0.49537 -1.38981,-0.27521 -2.02279,-0.82563 -0.61922,-0.55042 -0.61922,-1.34853 0,-0.70179 0.41281,-1.15589 0.41282,-0.46785 1.05956,-0.68802 0.64674,-0.23393 1.34853,-0.23393 0.90819,0 1.60998,0.28897 0.70178,0.28897 1.1146,0.79811 0.19265,0.22017 0.17889,0.46786 -0.0138,0.23393 -0.23393,0.39905 -0.22017,0.15137 -0.5229,0.0963 -0.30273,-0.055 -0.50914,-0.24769 -0.34401,-0.33026 -0.74307,-0.4541 -0.39905,-0.12384 -0.92195,-0.12384 -0.60546,0 -1.03204,0.2064 -0.41281,0.20641 -0.41281,0.60546 0,0.24769 0.12384,0.4541 0.13761,0.19265 0.5229,0.35777 0.38529,0.15137 1.12836,0.30274 1.03204,0.2064 1.62374,0.52289 0.60546,0.3165 0.86691,0.74307 0.26145,0.41282 0.26145,0.96324 0,0.63298 -0.34401,1.14212 -0.33025,0.50914 -0.99076,0.81187 -0.64674,0.30273 -1.62374,0.30273 z"
     id="text1"
     style="font-weight:bold;font-size:13.7605px;font-family:Comfortaa;-inkscape-font-specification:'Comfortaa Bold';letter-spacing:0px;fill:#646464;stroke-width:0.271;stroke-linecap:round"
     aria-label="Makers" /></svg>
