<?xml version="1.0" encoding="UTF-8" standalone="no"?>
<!-- Created with Inkscape (http://www.inkscape.org/) -->

<svg
   width="177.11671mm"
   height="54.099766mm"
   viewBox="0 0 177.11671 54.099766"
   version="1.1"
   id="svg5"
   xml:space="preserve"
   xmlns="http://www.w3.org/2000/svg"
   xmlns:svg="http://www.w3.org/2000/svg"><defs
     id="defs2" /><text
     xml:space="preserve"
     style="font-style:normal;font-variant:normal;font-weight:bold;font-stretch:normal;font-size:13.7605px;font-family:Comfortaa;-inkscape-font-specification:'Comfortaa Bold';letter-spacing:0px;fill:#ffffff;fill-opacity:1;stroke:none;stroke-width:0.270877;stroke-linecap:round;stroke-dasharray:none;stroke-opacity:1"
     x="125.00584"
     y="54.013535"
     id="text25"><tspan
       id="tspan25"
       style="font-style:normal;font-variant:normal;font-weight:bold;font-stretch:normal;font-family:Comfortaa;-inkscape-font-specification:'Comfortaa Bold';letter-spacing:0px;fill:#ffffff;fill-opacity:1;stroke:none;stroke-width:0.270877;stroke-dasharray:none;stroke-opacity:1"
       x="125.00584"
       y="54.013535">Makers</tspan></text><g
     id="layer1"
     style="display:inline;fill:#ffffff;fill-opacity:1;stroke:none"
     transform="translate(-11.441637,-79.846806)"><path
       style="fill:#ffffff;fill-opacity:1;stroke:none;stroke-width:1.2;stroke-linecap:square;stroke-linejoin:round;stroke-dasharray:none;stroke-opacity:1;stop-color:#000000"
       d="m 178.91029,119.5249 h 9.64807 v -9.64806 h -9.64807 z"
       id="path386" /><path
       id="path1"
       style="font-family:none;mix-blend-mode:normal;fill:#ffffff;fill-opacity:1;fill-rule:nonzero;stroke:none;stroke-width:1.2;stroke-linecap:butt;stroke-linejoin:miter;stroke-miterlimit:10;stroke-dasharray:none;stroke-dashoffset:0;stroke-opacity:1"
       d="m 82.872978,79.846806 c -11.128612,0 -20.153292,9.02468 -20.153292,20.153294 0,11.12861 9.02468,20.15329 20.153292,20.15329 11.128613,0 20.153292,-9.02468 20.153292,-20.15329 0,-11.128614 -9.024679,-20.153294 -20.153292,-20.153294 z m -1.351856,7.130831 h 2.703711 c 0.787849,0 1.463037,0.564598 1.602486,1.33997 l 0.290422,1.613338 c 0.547481,0.176355 1.072578,0.399514 1.576648,0.658874 l 1.351339,-0.939477 c 0.646776,-0.449815 1.52273,-0.37172 2.079976,0.185518 l 1.911511,1.912028 c 0.557246,0.557247 0.635338,1.43266 0.185519,2.079977 l -0.938444,1.351338 c 0.258816,0.50462 0.482528,1.02968 0.658874,1.577165 l 1.612305,0.289905 c 0.775369,0.139437 1.33997,0.814115 1.33997,1.601969 v 2.703708 c 0,0.78785 -0.564601,1.46304 -1.33997,1.60249 l -1.613338,0.29042 c -0.176355,0.54748 -0.400056,1.07255 -0.658875,1.57717 l 0.938444,1.35133 c 0.449811,0.64677 0.371721,1.52274 -0.185518,2.07998 l -1.911512,1.91151 c -0.557245,0.55723 -1.433202,0.63541 -2.079976,0.18552 l -1.351339,-0.93896 c -0.504614,0.25883 -1.02971,0.48201 -1.576648,0.65836 l -0.290421,1.61385 c -0.13891,0.77429 -0.81412,1.33842 -1.60197,1.33842 h -2.703711 c -0.78785,0 -1.46252,-0.56408 -1.601969,-1.33945 l -0.290421,-1.61386 c -0.54748,-0.17627 -1.072577,-0.39899 -1.576648,-0.65835 l -1.351339,0.93896 c -0.646774,0.44983 -1.522731,0.37165 -2.079977,-0.18552 l -1.912028,-1.91151 c -0.557245,-0.55724 -0.635337,-1.43318 -0.185518,-2.0805 l 0.938961,-1.35082 c -0.258818,-0.50462 -0.482528,-1.02968 -0.658875,-1.57716 l -1.613338,-0.29042 c -0.774287,-0.1389 -1.338936,-0.81413 -1.338936,-1.60197 v -2.703715 c 0,-0.787845 0.564598,-1.462532 1.33997,-1.601969 l 1.613338,-0.290422 c 0.176332,-0.547486 0.400054,-1.072546 0.658874,-1.577164 l -0.938444,-1.351339 c -0.44981,-0.646772 -0.371719,-1.523247 0.185519,-2.080493 l 1.911511,-1.911511 c 0.557247,-0.557245 1.433201,-0.635338 2.079976,-0.185519 l 1.351339,0.939478 c 0.504615,-0.258819 1.029712,-0.482532 1.576648,-0.658875 l 0.290422,-1.613855 c 0.138909,-0.774287 0.813603,-1.338419 1.601452,-1.338419 z m 1.351856,8.139038 c -2.696702,0 -4.883423,2.18618 -4.883423,4.883425 0,2.69724 2.186721,4.88342 4.883423,4.88342 2.696705,0 4.883423,-2.18618 4.883423,-4.88342 0,-2.697245 -2.186718,-4.883425 -4.883423,-4.883425 z" /><path
       d="m 165.54188,119.5249 h 9.72507 L 162.04086,80.624628 H 150.70421 L 137.47812,119.5249 h 9.72507 l 9.16935,-28.730628 z"
       id="path21845"
       style="font-size:55.5718px;line-height:1.25;font-family:Gilroy;-inkscape-font-specification:Gilroy;fill:#ffffff;fill-opacity:1;stroke:none;stroke-width:1.2;stroke-dasharray:none;stroke-opacity:1" /><path
       d="m 11.441641,80.624631 v 38.900259 h 8.891488 V 80.624631 Z"
       id="path21837"
       style="font-size:55.5718px;line-height:1.25;font-family:Gilroy;-inkscape-font-specification:Gilroy;fill:#ffffff;fill-opacity:1;stroke:none;stroke-width:1.2;stroke-dasharray:none;stroke-opacity:1" /><path
       d="M 48.674679,80.624631 V 101.74191 L 33.670293,80.624631 h -6.668616 v 38.900259 h 8.891488 V 98.407608 l 15.004386,21.117282 h 6.668616 V 80.624631 Z"
       id="path21839"
       style="font-size:55.5718px;line-height:1.25;font-family:Gilroy;-inkscape-font-specification:Gilroy;fill:#ffffff;fill-opacity:1;stroke:none;stroke-width:1.2;stroke-dasharray:none;stroke-opacity:1" /><path
       d="m 115.69403,119.52489 h 11.33665 l 12.67037,-38.900258 h -9.72506 l -8.61363,28.619468 -8.61363,-28.619468 h -9.72507 z"
       id="path21843"
       style="font-size:55.5718px;line-height:1.25;font-family:Gilroy;-inkscape-font-specification:Gilroy;fill:#ffffff;fill-opacity:1;stroke:none;stroke-width:1.2;stroke-dasharray:none;stroke-opacity:1" /></g></svg>
